<svg width="32" height="32" viewBox="0 0 32 32" fill="none" xmlns="http://www.w3.org/2000/svg">
<path d="M6.25 15.3684C5.34 15.3684 4.57083 15.0632 3.9425 14.4526C3.31417 13.8421 3 13.0947 3 12.2105C3 11.3263 3.31417 10.5789 3.9425 9.96842C4.57083 9.35789 5.34 9.05263 6.25 9.05263C7.16 9.05263 7.92917 9.35789 8.5575 9.96842C9.18583 10.5789 9.5 11.3263 9.5 12.2105C9.5 13.0947 9.18583 13.8421 8.5575 14.4526C7.92917 15.0632 7.16 15.3684 6.25 15.3684ZM12.1 10.3158C11.19 10.3158 10.4208 10.0105 9.7925 9.4C9.16417 8.78947 8.85 8.04211 8.85 7.15789C8.85 6.27368 9.16417 5.52632 9.7925 4.91579C10.4208 4.30526 11.19 4 12.1 4C13.01 4 13.7792 4.30526 14.4075 4.91579C15.0358 5.52632 15.35 6.27368 15.35 7.15789C15.35 8.04211 15.0358 8.78947 14.4075 9.4C13.7792 10.0105 13.01 10.3158 12.1 10.3158ZM19.9 10.3158C18.99 10.3158 18.2208 10.0105 17.5925 9.4C16.9642 8.78947 16.65 8.04211 16.65 7.15789C16.65 6.27368 16.9642 5.52632 17.5925 4.91579C18.2208 4.30526 18.99 4 19.9 4C20.81 4 21.5792 4.30526 22.2075 4.91579C22.8358 5.52632 23.15 6.27368 23.15 7.15789C23.15 8.04211 22.8358 8.78947 22.2075 9.4C21.5792 10.0105 20.81 10.3158 19.9 10.3158ZM25.75 15.3684C24.84 15.3684 24.0708 15.0632 23.4425 14.4526C22.8142 13.8421 22.5 13.0947 22.5 12.2105C22.5 11.3263 22.8142 10.5789 23.4425 9.96842C24.0708 9.35789 24.84 9.05263 25.75 9.05263C26.66 9.05263 27.4292 9.35789 28.0575 9.96842C28.6858 10.5789 29 11.3263 29 12.2105C29 13.0947 28.6858 13.8421 28.0575 14.4526C27.4292 15.0632 26.66 15.3684 25.75 15.3684ZM9.045 28C8.07 28 7.25208 27.6368 6.59125 26.9105C5.93042 26.1842 5.6 25.3263 5.6 24.3368C5.6 23.2421 5.98458 22.2842 6.75375 21.4632C7.52292 20.6421 8.28667 19.8316 9.045 19.0316C9.67333 18.3789 10.215 17.6684 10.67 16.9C11.125 16.1316 11.6667 15.4105 12.295 14.7368C12.7717 14.1895 13.3242 13.7368 13.9525 13.3789C14.5808 13.0211 15.2633 12.8421 16 12.8421C16.7367 12.8421 17.4192 13.0105 18.0475 13.3474C18.6758 13.6842 19.2283 14.1263 19.705 14.6737C20.3117 15.3474 20.8479 16.0737 21.3138 16.8526C21.7796 17.6316 22.3267 18.3579 22.955 19.0316C23.7133 19.8316 24.4771 20.6421 25.2463 21.4632C26.0154 22.2842 26.4 23.2421 26.4 24.3368C26.4 25.3263 26.0696 26.1842 25.4088 26.9105C24.7479 27.6368 23.93 28 22.955 28C21.785 28 20.6258 27.9053 19.4775 27.7158C18.3292 27.5263 17.17 27.4316 16 27.4316C14.83 27.4316 13.6708 27.5263 12.5225 27.7158C11.3742 27.9053 10.215 28 9.045 28Z" fill="#1A5C6B"/>
</svg>
