<svg width="32" height="32" viewBox="0 0 32 32" fill="none" xmlns="http://www.w3.org/2000/svg">
<path d="M9.75 23.5H13.5V18.5H14.75V15.375C14.75 14.6875 14.5052 14.099 14.0156 13.6094C13.526 13.1198 12.9375 12.875 12.25 12.875H11C10.3125 12.875 9.72396 13.1198 9.23438 13.6094C8.74479 14.099 8.5 14.6875 8.5 15.375V18.5H9.75V23.5ZM11.625 11.625C12.0625 11.625 12.4323 11.474 12.7344 11.1719C13.0365 10.8698 13.1875 10.5 13.1875 10.0625C13.1875 9.625 13.0365 9.25521 12.7344 8.95312C12.4323 8.65104 12.0625 8.5 11.625 8.5C11.1875 8.5 10.8177 8.65104 10.5156 8.95312C10.2135 9.25521 10.0625 9.625 10.0625 10.0625C10.0625 10.5 10.2135 10.8698 10.5156 11.1719C10.8177 11.474 11.1875 11.625 11.625 11.625ZM17.25 14.75H23.5L20.375 9.75L17.25 14.75ZM20.375 22.25L23.5 17.25H17.25L20.375 22.25ZM7.25 27.25C6.5625 27.25 5.97396 27.0052 5.48438 26.5156C4.99479 26.026 4.75 25.4375 4.75 24.75V7.25C4.75 6.5625 4.99479 5.97396 5.48438 5.48438C5.97396 4.99479 6.5625 4.75 7.25 4.75H24.75C25.4375 4.75 26.026 4.99479 26.5156 5.48438C27.0052 5.97396 27.25 6.5625 27.25 7.25V24.75C27.25 25.4375 27.0052 26.026 26.5156 26.5156C26.026 27.0052 25.4375 27.25 24.75 27.25H7.25ZM7.25 24.75H24.75V7.25H7.25V24.75ZM7.25 24.75V7.25V24.75Z" fill="#1A5C6B"/>
</svg>
