<svg width="32" height="32" viewBox="0 0 32 32" fill="none" xmlns="http://www.w3.org/2000/svg">
<path d="M14.4444 21.555L22.2778 13.8L20.7222 12.26L14.4444 18.475L11.2778 15.34L9.72222 16.88L14.4444 21.555ZM8.22222 27C7.61111 27 7.08796 26.7846 6.65278 26.3538C6.21759 25.9229 6 25.405 6 24.8V9.4C6 8.795 6.21759 8.27708 6.65278 7.84625C7.08796 7.41542 7.61111 7.2 8.22222 7.2H12.8889C13.1296 6.54 13.5324 6.00833 14.0972 5.605C14.662 5.20167 15.2963 5 16 5C16.7037 5 17.338 5.20167 17.9028 5.605C18.4676 6.00833 18.8704 6.54 19.1111 7.2H23.7778C24.3889 7.2 24.912 7.41542 25.3472 7.84625C25.7824 8.27708 26 8.795 26 9.4V24.8C26 25.405 25.7824 25.9229 25.3472 26.3538C24.912 26.7846 24.3889 27 23.7778 27H8.22222ZM8.22222 24.8H23.7778V9.4H8.22222V24.8ZM16 8.575C16.2407 8.575 16.4398 8.49708 16.5972 8.34125C16.7546 8.18542 16.8333 7.98833 16.8333 7.75C16.8333 7.51167 16.7546 7.31458 16.5972 7.15875C16.4398 7.00292 16.2407 6.925 16 6.925C15.7593 6.925 15.5602 7.00292 15.4028 7.15875C15.2454 7.31458 15.1667 7.51167 15.1667 7.75C15.1667 7.98833 15.2454 8.18542 15.4028 8.34125C15.5602 8.49708 15.7593 8.575 16 8.575ZM8.22222 24.8V9.4V24.8Z" fill="#1A5C6B"/>
</svg>
