<svg width="32" height="32" viewBox="0 0 32 32" fill="none" xmlns="http://www.w3.org/2000/svg">
<path d="M14.9091 7.27273V4H17.0909V7.27273H14.9091ZM14.9091 28V24.7273H17.0909V28H14.9091ZM24.7273 17.0909V14.9091H28V17.0909H24.7273ZM4 17.0909V14.9091H7.27273V17.0909H4ZM23.3091 10.2182L21.7818 8.69091L23.6909 6.72727L25.2727 8.30909L23.3091 10.2182ZM8.30909 25.2727L6.72727 23.6909L8.69091 21.7818L10.2182 23.3091L8.30909 25.2727ZM23.6909 25.2727L21.7818 23.3091L23.3091 21.7818L25.2727 23.6909L23.6909 25.2727ZM8.69091 10.2182L6.72727 8.30909L8.30909 6.72727L10.2182 8.69091L8.69091 10.2182ZM16 22.5455C14.1818 22.5455 12.6364 21.9091 11.3636 20.6364C10.0909 19.3636 9.45455 17.8182 9.45455 16C9.45455 14.1818 10.0909 12.6364 11.3636 11.3636C12.6364 10.0909 14.1818 9.45455 16 9.45455C17.8182 9.45455 19.3636 10.0909 20.6364 11.3636C21.9091 12.6364 22.5455 14.1818 22.5455 16C22.5455 17.8182 21.9091 19.3636 20.6364 20.6364C19.3636 21.9091 17.8182 22.5455 16 22.5455ZM16 20.3636C17.2182 20.3636 18.25 19.9409 19.0955 19.0955C19.9409 18.25 20.3636 17.2182 20.3636 16C20.3636 14.7818 19.9409 13.75 19.0955 12.9045C18.25 12.0591 17.2182 11.6364 16 11.6364C14.7818 11.6364 13.75 12.0591 12.9045 12.9045C12.0591 13.75 11.6364 14.7818 11.6364 16C11.6364 17.2182 12.0591 18.25 12.9045 19.0955C13.75 19.9409 14.7818 20.3636 16 20.3636Z" fill="#1A5C6B"/>
</svg>
