<svg width="32" height="32" viewBox="0 0 32 32" fill="none" xmlns="http://www.w3.org/2000/svg">
<path d="M16 16C16.6531 16 17.2122 15.7748 17.6773 15.3244C18.1424 14.874 18.375 14.3325 18.375 13.7C18.375 13.0675 18.1424 12.526 17.6773 12.0756C17.2122 11.6252 16.6531 11.4 16 11.4C15.3469 11.4 14.7878 11.6252 14.3227 12.0756C13.8576 12.526 13.625 13.0675 13.625 13.7C13.625 14.3325 13.8576 14.874 14.3227 15.3244C14.7878 15.7748 15.3469 16 16 16ZM16 24.4525C18.4146 22.3058 20.2057 20.3556 21.3734 18.6019C22.5411 16.8481 23.125 15.2908 23.125 13.93C23.125 11.8408 22.4372 10.1302 21.0617 8.79812C19.6862 7.46604 17.999 6.8 16 6.8C14.001 6.8 12.3138 7.46604 10.9383 8.79812C9.56276 10.1302 8.875 11.8408 8.875 13.93C8.875 15.2908 9.45885 16.8481 10.6266 18.6019C11.7943 20.3556 13.5854 22.3058 16 24.4525ZM16 27.5C12.8135 24.8742 10.4336 22.4352 8.86016 20.1831C7.28672 17.931 6.5 15.8467 6.5 13.93C6.5 11.055 7.45495 8.76458 9.36484 7.05875C11.2747 5.35292 13.4865 4.5 16 4.5C18.5135 4.5 20.7253 5.35292 22.6352 7.05875C24.5451 8.76458 25.5 11.055 25.5 13.93C25.5 15.8467 24.7133 17.931 23.1398 20.1831C21.5664 22.4352 19.1865 24.8742 16 27.5Z" fill="#1A5C6B"/>
</svg>
