<svg width="32" height="32" viewBox="0 0 32 32" fill="none" xmlns="http://www.w3.org/2000/svg">
<path d="M7.6 26.5C7.0225 26.5 6.52812 26.2944 6.11687 25.8831C5.70562 25.4719 5.5 24.9775 5.5 24.4V11.8C5.5 11.2225 5.70562 10.7281 6.11687 10.3169C6.52812 9.90562 7.0225 9.7 7.6 9.7H11.8V7.6C11.8 7.0225 12.0056 6.52812 12.4169 6.11687C12.8281 5.70562 13.3225 5.5 13.9 5.5H18.1C18.6775 5.5 19.1719 5.70562 19.5831 6.11687C19.9944 6.52812 20.2 7.0225 20.2 7.6V9.7H24.4C24.9775 9.7 25.4719 9.90562 25.8831 10.3169C26.2944 10.7281 26.5 11.2225 26.5 11.8V24.4C26.5 24.9775 26.2944 25.4719 25.8831 25.8831C25.4719 26.2944 24.9775 26.5 24.4 26.5H7.6ZM7.6 24.4H24.4V11.8H7.6V24.4ZM13.9 9.7H18.1V7.6H13.9V9.7ZM14.95 19.15V22.3H17.05V19.15H20.2V17.05H17.05V13.9H14.95V17.05H11.8V19.15H14.95Z" fill="#1A5C6B"/>
</svg>
