<svg width="32" height="32" viewBox="0 0 32 32" fill="none" xmlns="http://www.w3.org/2000/svg">
<path d="M23.95 25C21.8667 25 19.8083 24.5458 17.775 23.6375C15.7417 22.7292 13.8917 21.4417 12.225 19.775C10.5583 18.1083 9.27083 16.2583 8.3625 14.225C7.45417 12.1917 7 10.1333 7 8.05C7 7.75 7.1 7.5 7.3 7.3C7.5 7.1 7.75 7 8.05 7H12.1C12.3333 7 12.5417 7.07917 12.725 7.2375C12.9083 7.39583 13.0167 7.58333 13.05 7.8L13.7 11.3C13.7333 11.5667 13.725 11.7917 13.675 11.975C13.625 12.1583 13.5333 12.3167 13.4 12.45L10.975 14.9C11.3083 15.5167 11.7042 16.1125 12.1625 16.6875C12.6208 17.2625 13.125 17.8167 13.675 18.35C14.1917 18.8667 14.7333 19.3458 15.3 19.7875C15.8667 20.2292 16.4667 20.6333 17.1 21L19.45 18.65C19.6 18.5 19.7958 18.3875 20.0375 18.3125C20.2792 18.2375 20.5167 18.2167 20.75 18.25L24.2 18.95C24.4333 19.0167 24.625 19.1375 24.775 19.3125C24.925 19.4875 25 19.6833 25 19.9V23.95C25 24.25 24.9 24.5 24.7 24.7C24.5 24.9 24.25 25 23.95 25ZM10.025 13L11.675 11.35L11.25 9H9.025C9.10833 9.68333 9.225 10.3583 9.375 11.025C9.525 11.6917 9.74167 12.35 10.025 13ZM18.975 21.95C19.625 22.2333 20.2875 22.4583 20.9625 22.625C21.6375 22.7917 22.3167 22.9 23 22.95V20.75L20.65 20.275L18.975 21.95Z" fill="#1A5C6B"/>
</svg>
