<svg width="32" height="32" viewBox="0 0 32 32" fill="none" xmlns="http://www.w3.org/2000/svg">
<path d="M15 25V23H23V15.9C23 13.95 22.3208 12.2958 20.9625 10.9375C19.6042 9.57917 17.95 8.9 16 8.9C14.05 8.9 12.3958 9.57917 11.0375 10.9375C9.67917 12.2958 9 13.95 9 15.9V22H8C7.45 22 6.97917 21.8042 6.5875 21.4125C6.19583 21.0208 6 20.55 6 20V18C6 17.65 6.0875 17.3208 6.2625 17.0125C6.4375 16.7042 6.68333 16.4583 7 16.275L7.075 14.95C7.20833 13.8167 7.5375 12.7667 8.0625 11.8C8.5875 10.8333 9.24583 9.99167 10.0375 9.275C10.8292 8.55833 11.7375 8 12.7625 7.6C13.7875 7.2 14.8667 7 16 7C17.1333 7 18.2083 7.2 19.225 7.6C20.2417 8 21.15 8.55417 21.95 9.2625C22.75 9.97083 23.4083 10.8083 23.925 11.775C24.4417 12.7417 24.775 13.7917 24.925 14.925L25 16.225C25.3167 16.375 25.5625 16.6 25.7375 16.9C25.9125 17.2 26 17.5167 26 17.85V20.15C26 20.4833 25.9125 20.8 25.7375 21.1C25.5625 21.4 25.3167 21.625 25 21.775V23C25 23.55 24.8042 24.0208 24.4125 24.4125C24.0208 24.8042 23.55 25 23 25H15ZM13 18C12.7167 18 12.4792 17.9042 12.2875 17.7125C12.0958 17.5208 12 17.2833 12 17C12 16.7167 12.0958 16.4792 12.2875 16.2875C12.4792 16.0958 12.7167 16 13 16C13.2833 16 13.5208 16.0958 13.7125 16.2875C13.9042 16.4792 14 16.7167 14 17C14 17.2833 13.9042 17.5208 13.7125 17.7125C13.5208 17.9042 13.2833 18 13 18ZM19 18C18.7167 18 18.4792 17.9042 18.2875 17.7125C18.0958 17.5208 18 17.2833 18 17C18 16.7167 18.0958 16.4792 18.2875 16.2875C18.4792 16.0958 18.7167 16 19 16C19.2833 16 19.5208 16.0958 19.7125 16.2875C19.9042 16.4792 20 16.7167 20 17C20 17.2833 19.9042 17.5208 19.7125 17.7125C19.5208 17.9042 19.2833 18 19 18ZM10.025 16.45C9.90833 14.6833 10.4417 13.1667 11.625 11.9C12.8083 10.6333 14.2833 10 16.05 10C17.5333 10 18.8375 10.4708 19.9625 11.4125C21.0875 12.3542 21.7667 13.5583 22 15.025C20.4833 15.0083 19.0875 14.6 17.8125 13.8C16.5375 13 15.5583 11.9167 14.875 10.55C14.6083 11.8833 14.0458 13.0708 13.1875 14.1125C12.3292 15.1542 11.275 15.9333 10.025 16.45Z" fill="#1A5C6B"/>
</svg>
