<svg width="32" height="32" viewBox="0 0 32 32" fill="none" xmlns="http://www.w3.org/2000/svg">
<path d="M7 25V23H9V7H19V8H23V23H25V25H21V10H19V25H7ZM11 9V23V9ZM15 17C15.2833 17 15.5208 16.9042 15.7125 16.7125C15.9042 16.5208 16 16.2833 16 16C16 15.7167 15.9042 15.4792 15.7125 15.2875C15.5208 15.0958 15.2833 15 15 15C14.7167 15 14.4792 15.0958 14.2875 15.2875C14.0958 15.4792 14 15.7167 14 16C14 16.2833 14.0958 16.5208 14.2875 16.7125C14.4792 16.9042 14.7167 17 15 17ZM11 23H17V9H11V23Z" fill="#1A5C6B"/>
</svg>
