<svg width="32" height="32" viewBox="0 0 32 32" fill="none" xmlns="http://www.w3.org/2000/svg">
<path d="M7.44493 29V23.41C6.1957 22.2833 5.2259 20.9671 4.53554 19.4613C3.84518 17.9554 3.5 16.3683 3.5 14.7C3.5 11.45 4.6506 8.6875 6.95181 6.4125C9.25302 4.1375 12.0473 3 15.3348 3C18.0743 3 20.5015 3.79625 22.6165 5.38875C24.7314 6.98125 26.1066 9.05583 26.7422 11.6125L28.4517 18.275C28.5612 18.6867 28.4845 19.0604 28.2215 19.3963C27.9585 19.7321 27.6079 19.9 27.1696 19.9H24.5396V23.8C24.5396 24.515 24.2821 25.1271 23.7671 25.6362C23.252 26.1454 22.6329 26.4 21.9097 26.4H19.2797V29H16.6498V23.8H21.9097V17.3H25.4601L24.2109 12.2625C23.7068 10.2908 22.6329 8.6875 20.9892 7.4525C19.3455 6.2175 17.4607 5.6 15.3348 5.6C12.7925 5.6 10.6228 6.4775 8.82565 8.2325C7.02852 9.9875 6.12995 12.1217 6.12995 14.635C6.12995 15.935 6.39842 17.17 6.93537 18.34C7.47232 19.51 8.23391 20.55 9.22014 21.46L10.0749 22.24V29H7.44493ZM14.0198 19.9H16.6498L16.847 18.275C17.0223 18.21 17.1812 18.1342 17.3237 18.0475C17.4661 17.9608 17.5922 17.8633 17.7017 17.755L19.214 18.405L20.5289 16.195L19.214 15.22C19.2578 15.0467 19.2797 14.8733 19.2797 14.7C19.2797 14.5267 19.2578 14.3533 19.214 14.18L20.5289 13.205L19.214 10.995L17.7017 11.645C17.5922 11.5367 17.4661 11.4392 17.3237 11.3525C17.1812 11.2658 17.0223 11.19 16.847 11.125L16.6498 9.5H14.0198L13.8226 11.125C13.6472 11.19 13.4883 11.2658 13.3459 11.3525C13.2034 11.4392 13.0774 11.5367 12.9678 11.645L11.4556 10.995L10.1406 13.205L11.4556 14.18C11.4118 14.3533 11.3899 14.5267 11.3899 14.7C11.3899 14.8733 11.4118 15.0467 11.4556 15.22L10.1406 16.195L11.4556 18.405L12.9678 17.755C13.0774 17.8633 13.2034 17.9608 13.3459 18.0475C13.4883 18.1342 13.6472 18.21 13.8226 18.275L14.0198 19.9ZM15.3348 16.65C14.7869 16.65 14.3212 16.4604 13.9376 16.0813C13.5541 15.7021 13.3623 15.2417 13.3623 14.7C13.3623 14.1583 13.5541 13.6979 13.9376 13.3188C14.3212 12.9396 14.7869 12.75 15.3348 12.75C15.8827 12.75 16.3484 12.9396 16.7319 13.3188C17.1155 13.6979 17.3072 14.1583 17.3072 14.7C17.3072 15.2417 17.1155 15.7021 16.7319 16.0813C16.3484 16.4604 15.8827 16.65 15.3348 16.65Z" fill="#1A5C6B"/>
</svg>
