<svg width="32" height="32" viewBox="0 0 32 32" fill="none" xmlns="http://www.w3.org/2000/svg">
<path d="M16 27.9275L14.115 26.2375C11.9267 24.2658 10.1175 22.565 8.6875 21.135C7.2575 19.705 6.12 18.4213 5.275 17.2838C4.43 16.1463 3.83958 15.1008 3.50375 14.1475C3.16792 13.1942 3 12.2192 3 11.2225C3 9.18584 3.6825 7.48501 5.0475 6.12001C6.4125 4.75501 8.11333 4.07251 10.15 4.07251C11.2767 4.07251 12.3492 4.31084 13.3675 4.78751C14.3858 5.26418 15.2633 5.93584 16 6.80251C16.7367 5.93584 17.6142 5.26418 18.6325 4.78751C19.6508 4.31084 20.7233 4.07251 21.85 4.07251C23.8867 4.07251 25.5875 4.75501 26.9525 6.12001C28.3175 7.48501 29 9.18584 29 11.2225C29 12.2192 28.8321 13.1942 28.4963 14.1475C28.1604 15.1008 27.57 16.1463 26.725 17.2838C25.88 18.4213 24.7425 19.705 23.3125 21.135C21.8825 22.565 20.0733 24.2658 17.885 26.2375L16 27.9275Z" fill="#1A5C6B"/>
</svg>
