<svg width="32" height="32" viewBox="0 0 32 32" fill="none" xmlns="http://www.w3.org/2000/svg">
<path d="M15.9999 26C14.4332 25.8 13.0332 25.4 11.7999 24.8C10.5666 24.2 9.52074 23.4167 8.6624 22.45C7.80407 21.4833 7.1499 20.3625 6.6999 19.0875C6.2499 17.8125 6.0249 16.4 6.0249 14.85C7.85824 15.0333 9.40824 15.3667 10.6749 15.85C11.9416 16.3333 12.9707 17.0167 13.7624 17.9C14.5541 18.7833 15.1249 19.8875 15.4749 21.2125C15.8249 22.5375 15.9999 24.1333 15.9999 26ZM15.9999 17.575C15.6166 16.9917 15.0957 16.4167 14.4374 15.85C13.7791 15.2833 13.0166 14.7667 12.1499 14.3C12.2499 13.6 12.4166 12.875 12.6499 12.125C12.8832 11.375 13.1666 10.6375 13.4999 9.9125C13.8332 9.1875 14.2124 8.49167 14.6374 7.825C15.0624 7.15833 15.5166 6.55 15.9999 6C16.4832 6.55 16.9374 7.15833 17.3624 7.825C17.7874 8.49167 18.1666 9.1875 18.4999 9.9125C18.8332 10.6375 19.1166 11.375 19.3499 12.125C19.5832 12.875 19.7499 13.6 19.8499 14.3C18.9832 14.75 18.2207 15.2583 17.5624 15.825C16.9041 16.3917 16.3832 16.975 15.9999 17.575ZM17.9999 25.6C17.9666 24.4333 17.8791 23.3542 17.7374 22.3625C17.5957 21.3708 17.3749 20.4333 17.0749 19.55C17.8582 18.2 18.9374 17.1 20.3124 16.25C21.6874 15.4 23.5749 14.9333 25.9749 14.85C25.9916 17.4833 25.2874 19.7542 23.8624 21.6625C22.4374 23.5708 20.4832 24.8833 17.9999 25.6Z" fill="#1A5C6B"/>
</svg>
