<svg width="32" height="32" viewBox="0 0 32 32" fill="none" xmlns="http://www.w3.org/2000/svg">
<path d="M4.95 16.8C4.65 16.2 4.41667 15.5917 4.25 14.975C4.08333 14.3583 4 13.7333 4 13.1C4 11.2333 4.63333 9.66667 5.9 8.4C7.16667 7.13333 8.73333 6.5 10.6 6.5C11.65 6.5 12.65 6.72083 13.6 7.1625C14.55 7.60417 15.35 8.21667 16 9C16.65 8.21667 17.45 7.60417 18.4 7.1625C19.35 6.72083 20.35 6.5 21.4 6.5C23.2667 6.5 24.8333 7.13333 26.1 8.4C27.3667 9.66667 28 11.2333 28 13.1C28 13.7333 27.9167 14.3583 27.75 14.975C27.5833 15.5917 27.35 16.2 27.05 16.8C26.8667 16.4833 26.65 16.2 26.4 15.95C26.15 15.7 25.8583 15.5 25.525 15.35C25.675 14.9667 25.7917 14.5917 25.875 14.225C25.9583 13.8583 26 13.4833 26 13.1C26 11.8 25.5583 10.7083 24.675 9.825C23.7917 8.94167 22.7 8.5 21.4 8.5C20.05 8.5 19.0125 8.87083 18.2875 9.6125C17.5625 10.3542 16.8 11.1833 16 12.1C15.2 11.1667 14.4375 10.3333 13.7125 9.6C12.9875 8.86667 11.95 8.5 10.6 8.5C9.3 8.5 8.20833 8.94167 7.325 9.825C6.44167 10.7083 6 11.8 6 13.1C6 13.4833 6.04167 13.8583 6.125 14.225C6.20833 14.5917 6.325 14.9667 6.475 15.35C6.14167 15.5 5.85 15.7 5.6 15.95C5.35 16.2 5.13333 16.4833 4.95 16.8ZM4 25.5V23.925C4 23.1917 4.37083 22.6042 5.1125 22.1625C5.85417 21.7208 6.81667 21.5 8 21.5C8.21667 21.5 8.425 21.5042 8.625 21.5125C8.825 21.5208 9.01667 21.5417 9.2 21.575C8.96667 21.9083 8.79167 22.2667 8.675 22.65C8.55833 23.0333 8.5 23.4417 8.5 23.875V25.5H4ZM10 25.5V23.875C10 22.7917 10.5542 21.9167 11.6625 21.25C12.7708 20.5833 14.2167 20.25 16 20.25C17.8 20.25 19.25 20.5833 20.35 21.25C21.45 21.9167 22 22.7917 22 23.875V25.5H10ZM23.5 25.5V23.875C23.5 23.4417 23.4458 23.0333 23.3375 22.65C23.2292 22.2667 23.0667 21.9083 22.85 21.575C23.0333 21.5417 23.2208 21.5208 23.4125 21.5125C23.6042 21.5042 23.8 21.5 24 21.5C25.2 21.5 26.1667 21.7208 26.9 22.1625C27.6333 22.6042 28 23.1917 28 23.925V25.5H23.5ZM16 22.25C15.05 22.25 14.2 22.375 13.45 22.625C12.7 22.875 12.2583 23.1667 12.125 23.5H19.9C19.75 23.1667 19.3042 22.875 18.5625 22.625C17.8208 22.375 16.9667 22.25 16 22.25ZM8 20.5C7.45 20.5 6.97917 20.3042 6.5875 19.9125C6.19583 19.5208 6 19.05 6 18.5C6 17.9333 6.19583 17.4583 6.5875 17.075C6.97917 16.6917 7.45 16.5 8 16.5C8.56667 16.5 9.04167 16.6917 9.425 17.075C9.80833 17.4583 10 17.9333 10 18.5C10 19.05 9.80833 19.5208 9.425 19.9125C9.04167 20.3042 8.56667 20.5 8 20.5ZM24 20.5C23.45 20.5 22.9792 20.3042 22.5875 19.9125C22.1958 19.5208 22 19.05 22 18.5C22 17.9333 22.1958 17.4583 22.5875 17.075C22.9792 16.6917 23.45 16.5 24 16.5C24.5667 16.5 25.0417 16.6917 25.425 17.075C25.8083 17.4583 26 17.9333 26 18.5C26 19.05 25.8083 19.5208 25.425 19.9125C25.0417 20.3042 24.5667 20.5 24 20.5ZM16 19.5C15.1667 19.5 14.4583 19.2083 13.875 18.625C13.2917 18.0417 13 17.3333 13 16.5C13 15.65 13.2917 14.9375 13.875 14.3625C14.4583 13.7875 15.1667 13.5 16 13.5C16.85 13.5 17.5625 13.7875 18.1375 14.3625C18.7125 14.9375 19 15.65 19 16.5C19 17.3333 18.7125 18.0417 18.1375 18.625C17.5625 19.2083 16.85 19.5 16 19.5ZM16 15.5C15.7167 15.5 15.4792 15.5958 15.2875 15.7875C15.0958 15.9792 15 16.2167 15 16.5C15 16.7833 15.0958 17.0208 15.2875 17.2125C15.4792 17.4042 15.7167 17.5 16 17.5C16.2833 17.5 16.5208 17.4042 16.7125 17.2125C16.9042 17.0208 17 16.7833 17 16.5C17 16.2167 16.9042 15.9792 16.7125 15.7875C16.5208 15.5958 16.2833 15.5 16 15.5Z" fill="#1A5C6B"/>
</svg>
