<svg width="32" height="32" viewBox="0 0 32 32" fill="none" xmlns="http://www.w3.org/2000/svg">
<path d="M20.7143 16.7683L16.3667 12.6195C15.8254 12.1073 15.3671 11.5396 14.9917 10.9165C14.6163 10.2933 14.4286 9.61463 14.4286 8.88049C14.4286 7.94146 14.7647 7.14329 15.4369 6.48598C16.1091 5.82866 16.9254 5.5 17.8857 5.5C18.4444 5.5 18.9683 5.61524 19.4571 5.84573C19.946 6.07622 20.3651 6.3878 20.7143 6.78049C21.0635 6.3878 21.4825 6.07622 21.9714 5.84573C22.4603 5.61524 22.9841 5.5 23.5429 5.5C24.5032 5.5 25.3194 5.82866 25.9917 6.48598C26.6639 7.14329 27 7.94146 27 8.88049C27 9.61463 26.8167 10.2933 26.45 10.9165C26.0833 11.5396 25.6294 12.1073 25.0881 12.6195L20.7143 16.7683ZM20.7143 13.9L23.569 11.1598C23.9008 10.8354 24.2063 10.4896 24.4857 10.1226C24.7651 9.75549 24.9048 9.34146 24.9048 8.88049C24.9048 8.50488 24.7738 8.18902 24.5119 7.93293C24.25 7.67683 23.927 7.54878 23.5429 7.54878C23.2984 7.54878 23.0671 7.59573 22.8488 7.68963C22.6306 7.78354 22.4429 7.92439 22.2857 8.1122L20.7143 9.9561L19.1429 8.1122C18.9857 7.92439 18.798 7.78354 18.5798 7.68963C18.3615 7.59573 18.1302 7.54878 17.8857 7.54878C17.5016 7.54878 17.1786 7.67683 16.9167 7.93293C16.6548 8.18902 16.5238 8.50488 16.5238 8.88049C16.5238 9.34146 16.6635 9.75549 16.9429 10.1226C17.2222 10.4896 17.5278 10.8354 17.8595 11.1598L20.7143 13.9ZM11.2857 22.4024L18.5667 24.3488L24.8 22.4537C24.7127 22.3 24.5861 22.1677 24.4202 22.0567C24.2544 21.9457 24.0667 21.8902 23.8571 21.8902H18.5667C18.0952 21.8902 17.7198 21.8732 17.4405 21.839C17.1611 21.8049 16.873 21.7366 16.5762 21.6341L14.1405 20.8402L14.7167 18.8427L16.8381 19.5341C17.1349 19.6195 17.4841 19.6878 17.8857 19.739C18.2873 19.7902 18.881 19.8244 19.6667 19.8415C19.6667 19.6537 19.6099 19.4744 19.4964 19.3037C19.3829 19.1329 19.2476 19.022 19.0905 18.9707L12.9619 16.7683H11.2857V22.4024ZM5 25.9878V14.7195H12.9619C13.0841 14.7195 13.2063 14.7323 13.3286 14.7579C13.4508 14.7835 13.5643 14.8134 13.669 14.8476L19.8238 17.0756C20.4 17.2805 20.8671 17.639 21.225 18.1512C21.5829 18.6634 21.7619 19.2268 21.7619 19.8415H23.8571C24.7302 19.8415 25.4722 20.1232 26.0833 20.6866C26.6944 21.25 27 21.9927 27 22.9146V23.939L18.619 26.5L11.2857 24.5024V25.9878H5ZM7.09524 23.939H9.19048V16.7683H7.09524V23.939Z" fill="#1A5C6B"/>
</svg>
